<svg width="357" height="508" viewBox="0 0 357 508" fill="none" xmlns="http://www.w3.org/2000/svg">
<g style="mix-blend-mode:multiply">
<rect x="58.5331" y="41.4478" width="211.323" height="104.557" transform="rotate(-0.219093 58.5331 41.4478)" fill="#A669DF"/>
<rect x="158.261" y="21.3582" width="18.4079" height="353.744" transform="rotate(-0.219235 158.261 21.3582)" fill="#A669DF"/>
</g>
<g style="mix-blend-mode:multiply">
<rect x="19.3197" y="182.079" width="176.031" height="87.0952" transform="rotate(-5.2999 19.3197 182.079)" fill="#67B9A5"/>
<rect x="99.0548" y="157.772" width="18.4079" height="276.694" transform="rotate(-5.3 99.0548 157.772)" fill="#67B9A5"/>
</g>
<g style="mix-blend-mode:multiply">
<rect x="183.058" y="107.65" width="176.031" height="87.0952" transform="rotate(9.91908 183.058 107.65)" fill="#E0BC58"/>
<rect x="255.589" y="99.7318" width="18.4079" height="320.047" transform="rotate(9.92 255.589 99.7318)" fill="#E0BC58"/>
</g>
<path d="M60.448 499V469.096H70.48C72.752 469.096 74.608 469.496 76.048 470.296C77.52 471.064 78.608 472.104 79.312 473.416C80.016 474.728 80.368 476.168 80.368 477.736C80.368 478.92 80.176 480.024 79.792 481.048C79.408 482.072 78.816 482.984 78.016 483.784C77.248 484.552 76.256 485.16 75.04 485.608C73.824 486.024 72.384 486.232 70.72 486.232H65.296V499H60.448ZM65.296 482.248H70.336C71.52 482.248 72.48 482.072 73.216 481.72C73.984 481.336 74.56 480.808 74.944 480.136C75.328 479.432 75.52 478.648 75.52 477.784C75.52 476.92 75.328 476.152 74.944 475.48C74.56 474.808 73.984 474.28 73.216 473.896C72.48 473.48 71.536 473.272 70.384 473.272H65.296V482.248ZM94.048 499.528C91.68 499.528 89.664 498.936 88 497.752C86.368 496.568 85.136 494.824 84.304 492.52C83.472 490.216 83.056 487.416 83.056 484.12C83.056 480.888 83.472 478.136 84.304 475.864C85.136 473.56 86.368 471.8 88 470.584C89.664 469.368 91.68 468.76 94.048 468.76C96.448 468.76 98.464 469.368 100.096 470.584C101.728 471.8 102.96 473.56 103.792 475.864C104.656 478.136 105.088 480.888 105.088 484.12C105.088 487.416 104.656 490.216 103.792 492.52C102.96 494.824 101.728 496.568 100.096 497.752C98.464 498.936 96.448 499.528 94.048 499.528ZM94.048 495.64C95.36 495.64 96.48 495.208 97.408 494.344C98.336 493.48 99.056 492.2 99.568 490.504C100.08 488.776 100.336 486.632 100.336 484.072C100.336 481.672 100.08 479.624 99.568 477.928C99.056 476.232 98.336 474.936 97.408 474.04C96.48 473.112 95.36 472.648 94.048 472.648C92.736 472.648 91.6 473.112 90.64 474.04C89.712 474.936 89.008 476.232 88.528 477.928C88.048 479.624 87.808 481.672 87.808 484.072C87.808 486.632 88.048 488.776 88.528 490.504C89.008 492.2 89.712 493.48 90.64 494.344C91.6 495.208 92.736 495.64 94.048 495.64ZM108.88 469.096H113.68H114.112V469.528C113.92 469.72 113.808 469.928 113.776 470.152C113.744 470.376 113.728 470.76 113.728 471.304V495.064H127.648V499H108.88V469.096ZM133.552 499V495.112H139.408V472.984H133.84V469.096H149.824V472.984H143.968V495.16H150.112V499H133.552ZM163.408 499V473.128H155.248V469.048H176.608V473.128H168.064V499H163.408ZM181.552 499V495.112H187.408V472.984H181.84V469.096H197.824V472.984H191.968V495.16H198.112V499H181.552ZM215.488 499.528C213.856 499.528 212.32 499.224 210.88 498.616C209.472 498.008 208.224 497.08 207.136 495.832C206.048 494.584 205.184 493 204.544 491.08C203.936 489.16 203.632 486.872 203.632 484.216C203.632 481.88 203.856 479.848 204.304 478.12C204.784 476.36 205.424 474.888 206.224 473.704C207.024 472.488 207.936 471.528 208.96 470.824C209.984 470.088 211.056 469.56 212.176 469.24C213.296 468.888 214.416 468.712 215.536 468.712C217.776 468.712 219.68 469.24 221.248 470.296C222.848 471.32 224.048 472.744 224.848 474.568L221.632 476.728L221.248 476.968L221.008 476.632C221.072 476.376 221.056 476.136 220.96 475.912C220.896 475.656 220.72 475.32 220.432 474.904C219.728 473.976 218.976 473.352 218.176 473.032C217.376 472.712 216.56 472.552 215.728 472.552C214.704 472.552 213.728 472.808 212.8 473.32C211.904 473.8 211.12 474.52 210.448 475.48C209.776 476.44 209.248 477.64 208.864 479.08C208.48 480.488 208.288 482.12 208.288 483.976C208.288 485.768 208.464 487.384 208.816 488.824C209.2 490.232 209.712 491.448 210.352 492.472C211.024 493.464 211.792 494.232 212.656 494.776C213.552 495.288 214.512 495.544 215.536 495.544C216.336 495.544 217.072 495.432 217.744 495.208C218.416 494.984 219.04 494.616 219.616 494.104C220.192 493.56 220.704 492.92 221.152 492.184L224.512 494.536C223.456 496.296 222.192 497.576 220.72 498.376C219.248 499.144 217.504 499.528 215.488 499.528ZM237.472 499.576C236.544 499.576 235.744 499.256 235.072 498.616C234.432 497.944 234.112 497.16 234.112 496.264C234.112 495.336 234.432 494.552 235.072 493.912C235.744 493.24 236.544 492.904 237.472 492.904C238.368 492.904 239.136 493.24 239.776 493.912C240.448 494.552 240.784 495.336 240.784 496.264C240.784 497.16 240.448 497.944 239.776 498.616C239.136 499.256 238.368 499.576 237.472 499.576ZM252.88 469.096H257.68H258.112V469.528C257.92 469.72 257.808 469.928 257.776 470.152C257.744 470.376 257.728 470.76 257.728 471.304V495.064H271.648V499H252.88V469.096ZM283.984 499V487.192L274.96 469.096H280L286.528 482.248L292.384 469.096H297.184L288.832 487.192V499H283.984Z" fill="black"/>
</svg>
